<svg width="114" height="60" viewBox="0 0 114 60" fill="none" xmlns="http://www.w3.org/2000/svg">
<path d="M36.1052 15.192C36.3956 15.4825 36.6634 16.0908 36.5337 17.3167C36.4058 18.5259 35.9071 20.0937 35.0043 21.935C33.2057 25.6036 29.9573 30.0469 25.6592 34.3451C21.361 38.6432 16.9177 41.8915 13.2492 43.6902C11.4078 44.593 9.84005 45.0917 8.6308 45.2196C7.40493 45.3493 6.79659 45.0815 6.50612 44.791C6.21564 44.5006 5.94783 43.8922 6.07755 42.6664C6.2055 41.4571 6.70414 39.8894 7.60695 38.048C9.40562 34.3794 12.654 29.9361 16.9521 25.638C21.2502 21.3398 25.6935 18.0915 29.3621 16.2928C31.2035 15.39 32.7712 14.8914 33.9805 14.7634C35.2063 14.6337 35.8147 14.9015 36.1052 15.192Z" stroke="#247AB5" stroke-width="3.0442"/>
<path d="M6.50646 15.1917C6.79694 14.9012 7.40527 14.6334 8.63115 14.7631C9.84039 14.8911 11.4081 15.3897 13.2495 16.2925C16.9181 18.0912 21.3614 21.3396 25.6595 25.6377C29.9577 29.9358 33.206 34.3791 35.0047 38.0477C35.9075 39.8891 36.4061 41.4568 36.5341 42.6661C36.6638 43.8919 36.396 44.5003 36.1055 44.7908C35.815 45.0812 35.2067 45.349 33.9808 45.2193C32.7716 45.0914 31.2039 44.5927 29.3625 43.6899C25.6939 41.8913 21.2506 38.6429 16.9524 34.3448C12.6543 30.0466 9.40597 25.6033 7.60729 21.9348C6.70448 20.0934 6.20584 18.5256 6.07789 17.3164C5.94818 16.0905 6.21599 15.4822 6.50646 15.1917Z" stroke="#247AB5" stroke-width="3.0442"/>
<path d="M53.4941 1L53.4941 59" stroke="#247AB5" stroke-width="1.28177" stroke-linecap="round"/>
<path d="M60.0376 35.625V23.7646H61.333V33.337L68.4829 23.7646H69.5427V35.625H68.2642V26.0189L61.0975 35.625H60.0376ZM72.5244 35.625V23.7646H73.6852L78.2443 32.3277L82.7697 23.7646H83.9305V35.625H82.6519V26.3554L78.6985 33.7913H77.79L73.7861 26.3722V35.625H72.5244ZM86.9161 35.625V23.7646H88.0769L92.636 32.3277L97.1614 23.7646H98.3222V35.625H97.0437V26.3554L93.0902 33.7913H92.1818L88.1778 26.3722V35.625H86.9161ZM106.254 35.7764C105.155 35.7764 104.196 35.5297 103.377 35.0362C102.57 34.5315 101.942 33.8249 101.493 32.9165C101.055 32.008 100.837 30.9313 100.837 29.6864C100.837 28.4415 101.055 27.3648 101.493 26.4564C101.93 25.5479 102.553 24.8469 103.36 24.3535C104.179 23.86 105.144 23.6132 106.254 23.6132C107.375 23.6132 108.34 23.86 109.147 24.3535C109.966 24.8469 110.594 25.5479 111.032 26.4564C111.48 27.3536 111.705 28.4247 111.705 29.6696C111.705 30.9145 111.48 31.9968 111.032 32.9165C110.583 33.8249 109.949 34.5315 109.131 35.0362C108.323 35.5297 107.364 35.7764 106.254 35.7764ZM106.254 34.5483C107.521 34.5483 108.503 34.1221 109.198 33.2698C109.893 32.4174 110.241 31.2229 110.241 29.6864C110.241 28.1499 109.893 26.961 109.198 26.1199C108.503 25.2675 107.521 24.8413 106.254 24.8413C105.009 24.8413 104.039 25.2675 103.343 26.1199C102.648 26.961 102.3 28.1499 102.3 29.6864C102.3 31.2117 102.648 32.4062 103.343 33.2698C104.039 34.1221 105.009 34.5483 106.254 34.5483Z" fill="#247AB5"/>
</svg>
